<svg xmlns="http://www.w3.org/2000/svg" width="35.981" height="32.614" viewBox="0 0 35.981 32.614">
  <g id="Manage_backups" data-name="Manage backups" transform="translate(-439.738 -1247.442)">
    <g id="Group_4491" data-name="Group 4491" transform="translate(111.813 66.23)">
      <path id="Path_7486" data-name="Path 7486" d="M360.893,336.775a4.1,4.1,0,0,1,4.038,4.162c0,2.3-1.808,5.032-4.038,5.032s-4.038-2.733-4.038-5.032A4.1,4.1,0,0,1,360.893,336.775Z" transform="translate(-14.687 858.662)" fill="none" stroke="#121212" stroke-miterlimit="2.613" stroke-width="0.75" fill-rule="evenodd"/>
      <path id="Path_7487" data-name="Path 7487" d="M375.1,437.275h1.8l.994,5.529h-3.789Z" transform="translate(-29.795 770.648)" fill="none" stroke="#121212" stroke-miterlimit="2.613" stroke-width="0.5" fill-rule="evenodd"/>
      <path id="Path_7488" data-name="Path 7488" d="M379.508,422.825h1.8l.369-2.05h-2.538Z" transform="translate(-34.203 785.098)" fill="none" stroke="#121212" stroke-miterlimit="2.613" stroke-width="0.5" fill-rule="evenodd"/>
      <path id="Path_7489" data-name="Path 7489" d="M335.809,428.353H347.88a.706.706,0,0,0,.7-.7v-1.591a5.855,5.855,0,0,0-1.609-4.034,5.076,5.076,0,0,0-3.674-1.249h-2.915a5.076,5.076,0,0,0-3.672,1.248,5.855,5.855,0,0,0-1.61,4.035v1.591A.706.706,0,0,0,335.809,428.353Z" transform="translate(4.361 785.098)" fill="none" stroke="#121212" stroke-miterlimit="2.613" stroke-width="0.75" fill-rule="evenodd"/>
    </g>
    <path id="Path_7515" data-name="Path 7515" d="M.669,0H7.521" transform="translate(443.743 1276.619)" fill="none" stroke="#121212" stroke-linecap="round" stroke-width="0.75"/>
    <path id="Path_7516" data-name="Path 7516" d="M-.4,0H5.87" transform="translate(465.13 1276.619)" fill="none" stroke="#121212" stroke-linecap="round" stroke-width="0.75"/>
    <g id="Ellipse_319" data-name="Ellipse 319" transform="translate(439.738 1273.937)" fill="none" stroke="#121212" stroke-width="0.75">
      <circle cx="2.5" cy="2.5" r="2.5" stroke="none"/>
      <circle cx="2.5" cy="2.5" r="2.125" fill="none"/>
    </g>
    <g id="Ellipse_320" data-name="Ellipse 320" transform="translate(470.719 1273.937)" fill="none" stroke="#121212" stroke-width="0.75">
      <circle cx="2.5" cy="2.5" r="2.5" stroke="none"/>
      <circle cx="2.5" cy="2.5" r="2.125" fill="none"/>
    </g>
    <path id="Path_7517" data-name="Path 7517" d="M-456.8,4137.659a12.889,12.889,0,0,0-5.672-2.766" transform="translate(924.849 -2878.862)" fill="none" stroke="#121212" stroke-linecap="round" stroke-width="0.75"/>
    <path id="Path_7518" data-name="Path 7518" d="M-463.371,4137.659a13.548,13.548,0,0,1,5.8-2.781" transform="translate(911.121 -2878.862)" fill="none" stroke="#121212" stroke-linecap="round" stroke-width="0.75"/>
    <path id="Path_7519" data-name="Path 7519" d="M-451.454,4153.141a20.77,20.77,0,0,0-.176-5.685" transform="translate(924.849 -2878.862)" fill="none" stroke="#121212" stroke-linecap="round" stroke-width="0.75"/>
    <path id="Path_7520" data-name="Path 7520" d="M-451.518,4153.141a20.77,20.77,0,0,1,.176-5.685" transform="translate(893.868 -2878.862)" fill="none" stroke="#121212" stroke-linecap="round" stroke-width="0.75"/>
    <g id="Group_4492" data-name="Group 4492" transform="translate(440.5 1257.522)">
      <path id="Path_6121" data-name="Path 6121" d="M370.491,318.675c.3.252.606.561.725.664,0,0,1.242-1.09,1.256-1.087,1.77.422,3.221,1.549,3.221,2.667,0,1.357-2.327,1.943-4.5,1.943s-4.5-.586-4.5-1.943a2.37,2.37,0,0,1,1.5-2.058" transform="translate(-366.693 -311.709)" fill="none" stroke="#121212" stroke-miterlimit="2.613" stroke-width="0.5" fill-rule="evenodd"/>
      <g id="Path_6126" data-name="Path 6126" transform="translate(-376.531 -314.75)" fill="none" stroke-miterlimit="2.613" fill-rule="evenodd">
        <path d="M381.054,322.379l.442,1.667-.442.756-.442-.756Z" stroke="none"/>
        <path d="M 381.0540466308594 322.3794250488281 L 381.4964599609375 324.0466003417969 L 381.0540466308594 324.8030700683594 L 380.6116638183594 324.0466003417969 L 381.0540466308594 322.3794250488281 Z" stroke="none" fill="#121212"/>
      </g>
      <path id="Path_6122" data-name="Path 6122" d="M376.609,300.662a2.473,2.473,0,1,1-2.253,2.464A2.366,2.366,0,0,1,376.609,300.662Z" transform="translate(-372.109 -299.4)" fill="none" stroke="#121212" stroke-miterlimit="2.613" stroke-width="0.5" fill-rule="evenodd"/>
      <path id="Path_6123" data-name="Path 6123" d="M372.009,299.56a3.407,3.407,0,0,1,6.8.01" transform="translate(-370.909 -296.356)" fill="none" stroke="#121212" stroke-miterlimit="2.613" stroke-width="0.5" fill-rule="evenodd"/>
      <path id="Path_6127" data-name="Path 6127" d="M373.336,315.148a3.957,3.957,0,0,1-1.1-1.322" transform="translate(-371.068 -308.704)" fill="none" stroke="#121212" stroke-miterlimit="2.613" stroke-width="0.5" fill-rule="evenodd"/>
      <path id="Path_6128" data-name="Path 6128" d="M.5,0h0c.278,0,.5.165.5.367V1.58c0,.2-.225.368-.5.368S0,1.783,0,1.58V.367C0,.165.225,0,.5,0Z" transform="translate(0.798 3.175)" fill="none" stroke="#121212" stroke-width="0.5"/>
      <path id="Path_6124" data-name="Path 6124" d="M.482,0A.436.436,0,0,1,.963.367V1.58a.436.436,0,0,1-.482.367h0A.436.436,0,0,1,0,1.58V.367A.436.436,0,0,1,.482,0Z" transform="translate(7.239 3.175)" fill="none" stroke="#121212" stroke-width="0.5"/>
      <path id="Path_6125" data-name="Path 6125" d="M.437,0A.428.428,0,0,1,.874.419V.5A.428.428,0,0,1,.437.917.428.428,0,0,1,0,.5V.419A.428.428,0,0,1,.437,0Z" transform="translate(2.269 6.283)" fill="none" stroke="#121212" stroke-width="0.5"/>
      <line id="Line_565" data-name="Line 565" x2="1.513" transform="translate(5.99 8.949)" fill="none" stroke="#121212" stroke-miterlimit="2.613" stroke-width="0.5"/>
    </g>
    <g id="Group_4493" data-name="Group 4493" transform="translate(466.297 1257.522)">
      <path id="Path_6121-2" data-name="Path 6121" d="M370.491,318.675c.3.252.606.561.725.664,0,0,1.242-1.09,1.256-1.087,1.77.422,3.221,1.549,3.221,2.667,0,1.357-2.327,1.943-4.5,1.943s-4.5-.586-4.5-1.943a2.37,2.37,0,0,1,1.5-2.058" transform="translate(-366.693 -311.709)" fill="none" stroke="#121212" stroke-miterlimit="2.613" stroke-width="0.5" fill-rule="evenodd"/>
      <g id="Path_6126-2" data-name="Path 6126" transform="translate(-376.531 -314.75)" fill="none" stroke-miterlimit="2.613" fill-rule="evenodd">
        <path d="M381.054,322.379l.442,1.667-.442.756-.442-.756Z" stroke="none"/>
        <path d="M 381.0540466308594 322.3794250488281 L 381.4964599609375 324.0466003417969 L 381.0540466308594 324.8030700683594 L 380.6116638183594 324.0466003417969 L 381.0540466308594 322.3794250488281 Z" stroke="none" fill="#121212"/>
      </g>
      <path id="Path_6122-2" data-name="Path 6122" d="M376.609,300.662a2.473,2.473,0,1,1-2.253,2.464A2.366,2.366,0,0,1,376.609,300.662Z" transform="translate(-372.109 -299.4)" fill="none" stroke="#121212" stroke-miterlimit="2.613" stroke-width="0.5" fill-rule="evenodd"/>
      <path id="Path_6123-2" data-name="Path 6123" d="M372.009,299.56a3.407,3.407,0,0,1,6.8.01" transform="translate(-370.909 -296.356)" fill="none" stroke="#121212" stroke-miterlimit="2.613" stroke-width="0.5" fill-rule="evenodd"/>
      <path id="Path_6127-2" data-name="Path 6127" d="M373.336,315.148a3.957,3.957,0,0,1-1.1-1.322" transform="translate(-371.068 -308.704)" fill="none" stroke="#121212" stroke-miterlimit="2.613" stroke-width="0.5" fill-rule="evenodd"/>
      <path id="Path_6128-2" data-name="Path 6128" d="M.5,0h0c.278,0,.5.165.5.367V1.58c0,.2-.225.368-.5.368S0,1.783,0,1.58V.367C0,.165.225,0,.5,0Z" transform="translate(0.798 3.175)" fill="none" stroke="#121212" stroke-width="0.5"/>
      <path id="Path_6124-2" data-name="Path 6124" d="M.482,0A.436.436,0,0,1,.963.367V1.58a.436.436,0,0,1-.482.367h0A.436.436,0,0,1,0,1.58V.367A.436.436,0,0,1,.482,0Z" transform="translate(7.239 3.175)" fill="none" stroke="#121212" stroke-width="0.5"/>
      <path id="Path_6125-2" data-name="Path 6125" d="M.437,0A.428.428,0,0,1,.874.419V.5A.428.428,0,0,1,.437.917.428.428,0,0,1,0,.5V.419A.428.428,0,0,1,.437,0Z" transform="translate(2.269 6.283)" fill="none" stroke="#121212" stroke-width="0.5"/>
      <line id="Line_565-2" data-name="Line 565" x2="1.513" transform="translate(5.99 8.949)" fill="none" stroke="#121212" stroke-miterlimit="2.613" stroke-width="0.5"/>
    </g>
    <g id="Group_4494" data-name="Group 4494" transform="translate(453.518 1247.692)">
      <path id="Path_6121-3" data-name="Path 6121" d="M370.491,318.676c.3.253.606.563.725.666,0,0,1.242-1.093,1.256-1.09,1.77.423,3.221,1.553,3.221,2.674,0,1.361-2.327,1.948-4.5,1.948s-4.5-.587-4.5-1.948a2.376,2.376,0,0,1,1.5-2.064" transform="translate(-366.693 -311.691)" fill="none" stroke="#121212" stroke-miterlimit="2.613" stroke-width="0.5" fill-rule="evenodd"/>
      <g id="Path_6126-3" data-name="Path 6126" transform="translate(-376.531 -314.728)" fill="none" stroke-miterlimit="2.613" fill-rule="evenodd">
        <path d="M381.054,322.379l.442,1.672-.442.759-.442-.759Z" stroke="none"/>
        <path d="M 381.0540466308594 322.37939453125 L 381.4964599609375 324.05126953125 L 381.0540466308594 324.8098754882813 L 380.6116638183594 324.05126953125 L 381.0540466308594 322.37939453125 Z" stroke="none" fill="#121212"/>
      </g>
      <path id="Path_6122-3" data-name="Path 6122" d="M376.609,300.662a2.481,2.481,0,1,1-2.253,2.47A2.369,2.369,0,0,1,376.609,300.662Z" transform="translate(-372.109 -299.396)" fill="none" stroke="#121212" stroke-miterlimit="2.613" stroke-width="0.5" fill-rule="evenodd"/>
      <path id="Path_6123-3" data-name="Path 6123" d="M372.009,299.569a3.406,3.406,0,0,1,6.8.01" transform="translate(-370.909 -296.356)" fill="none" stroke="#121212" stroke-miterlimit="2.613" stroke-width="0.5" fill-rule="evenodd"/>
      <path id="Path_6127-3" data-name="Path 6127" d="M373.336,315.152a3.965,3.965,0,0,1-1.1-1.326" transform="translate(-371.068 -308.69)" fill="none" stroke="#121212" stroke-miterlimit="2.613" stroke-width="0.5" fill-rule="evenodd"/>
      <path id="Path_6128-3" data-name="Path 6128" d="M.5,0h0c.278,0,.5.165.5.369V1.584c0,.2-.225.369-.5.369S0,1.788,0,1.584V.369C0,.165.225,0,.5,0Z" transform="translate(0.798 3.184)" fill="none" stroke="#121212" stroke-width="0.5"/>
      <path id="Path_6124-3" data-name="Path 6124" d="M.482,0A.437.437,0,0,1,.963.369V1.584a.437.437,0,0,1-.482.369h0A.437.437,0,0,1,0,1.584V.369A.437.437,0,0,1,.482,0Z" transform="translate(7.239 3.184)" fill="none" stroke="#121212" stroke-width="0.5"/>
      <path id="Path_6125-3" data-name="Path 6125" d="M.437,0A.429.429,0,0,1,.874.42V.5a.429.429,0,0,1-.437.42A.429.429,0,0,1,0,.5V.42A.429.429,0,0,1,.437,0Z" transform="translate(2.269 6.301)" fill="none" stroke="#121212" stroke-width="0.5"/>
      <line id="Line_565-3" data-name="Line 565" x2="1.513" transform="translate(5.99 8.974)" fill="none" stroke="#121212" stroke-miterlimit="2.613" stroke-width="0.5"/>
    </g>
  </g>
</svg>
