<svg xmlns="http://www.w3.org/2000/svg" width="90.018" height="81.927" viewBox="0 0 90.018 81.927">
  <g id="Custom_basket" data-name="Custom basket" transform="translate(-178 -470.11)">
    <g id="hayper" transform="translate(127.224 -712.922)">
      <path id="Path_30" data-name="Path 30" d="M127.29,1210.213s6.293.524,4.2,7.342-6.555,21.762-6.555,21.762-1.013,4.538-6.723,4.538H77.775s-2.622-.1-4.236-4.538-11.891-38.45-11.891-38.45-1.056-3.552-4.469-3.552H43.914" transform="translate(7.862 4.571)" fill="none" stroke="#088" stroke-linecap="round" stroke-width="2"/>
      <g id="Ellipse_33" data-name="Ellipse 33" transform="translate(83.966 1253.216)" fill="none" stroke="#088" stroke-width="2">
        <circle cx="5.871" cy="5.871" r="5.871" stroke="none"/>
        <circle cx="5.871" cy="5.871" r="4.871" fill="none"/>
      </g>
      <g id="Ellipse_34" data-name="Ellipse 34" transform="translate(119.192 1253.216)" fill="none" stroke="#088" stroke-width="2">
        <circle cx="5.871" cy="5.871" r="5.871" stroke="none"/>
        <circle cx="5.871" cy="5.871" r="4.871" fill="none"/>
      </g>
    </g>
    <g id="Group_4028" data-name="Group 4028" transform="translate(17.453 231.417)">
      <path id="Path_7323" data-name="Path 7323" d="M364.32,395.719a9.833,9.833,0,0,1,.333-1.18.753.753,0,0,1,.5-.493l1.89-.612a.767.767,0,0,0,.534-.8l-.151-1.982a.753.753,0,0,1,.267-.646,8.012,8.012,0,0,1,2.036-1.354.753.753,0,0,1,.7,0l1.769.9a.767.767,0,0,0,.94-.185l1.294-1.508a.753.753,0,0,1,.646-.268,7.975,7.975,0,0,1,2.4.481.753.753,0,0,1,.493.5l.612,1.89a.767.767,0,0,0,.8.534l1.981-.151a.753.753,0,0,1,.647.267,8.012,8.012,0,0,1,1.355,2.035.753.753,0,0,1,0,.7l-.9,1.77a.767.767,0,0,0,.185.94l1.508,1.294a.753.753,0,0,1,.268.646,7.986,7.986,0,0,1-.481,2.4.753.753,0,0,1-.5.493l-1.89.612a.767.767,0,0,0-.534.8l.151,1.982a.753.753,0,0,1-.267.646,8.012,8.012,0,0,1-2.036,1.354.753.753,0,0,1-.7,0l-1.769-.9a.767.767,0,0,0-.94.185l-1.294,1.508a.753.753,0,0,1-.646.268,7.972,7.972,0,0,1-2.4-.481.753.753,0,0,1-.493-.5L370,404.97a.767.767,0,0,0-.8-.534l-1.981.151a.753.753,0,0,1-.646-.267,8.012,8.012,0,0,1-1.355-2.035.753.753,0,0,1,0-.7l.9-1.77a.767.767,0,0,0-.185-.94l-1.507-1.294a.753.753,0,0,1-.268-.646,9.836,9.836,0,0,1,.148-1.217Zm11.052-3.393a5.5,5.5,0,1,1-6.476,4.311A5.5,5.5,0,0,1,375.371,392.327Z" transform="translate(-145.781 -125.673)" fill="none" stroke="#088" stroke-miterlimit="2.613" stroke-width="1.5" fill-rule="evenodd"/>
      <path id="Path_7324" data-name="Path 7324" d="M192.536,251.8a15.03,15.03,0,0,1,.507-1.8,1.146,1.146,0,0,1,.756-.75l2.877-.931a1.168,1.168,0,0,0,.813-1.212l-.231-3.017a1.147,1.147,0,0,1,.406-.983,12.193,12.193,0,0,1,3.1-2.061,1.146,1.146,0,0,1,1.065,0l2.693,1.376a1.168,1.168,0,0,0,1.432-.282l1.969-2.295a1.147,1.147,0,0,1,.984-.408,12.143,12.143,0,0,1,3.647.732,1.147,1.147,0,0,1,.75.756l.931,2.877a1.168,1.168,0,0,0,1.212.813l3.015-.23a1.146,1.146,0,0,1,.984.407,12.193,12.193,0,0,1,2.063,3.1,1.146,1.146,0,0,1,0,1.064l-1.377,2.694a1.168,1.168,0,0,0,.282,1.432l2.295,1.969a1.146,1.146,0,0,1,.408.984,12.156,12.156,0,0,1-.732,3.648,1.146,1.146,0,0,1-.756.75l-2.877.931a1.168,1.168,0,0,0-.813,1.212l.23,3.017a1.146,1.146,0,0,1-.406.983,12.193,12.193,0,0,1-3.1,2.061,1.146,1.146,0,0,1-1.065,0l-1.709-1.674a1.168,1.168,0,0,0-1.432.282l-1.509,2.123a1.147,1.147,0,0,1-.984.408c-.179-.013-.346-.027-.5-.042q-.074-1.208-.15-2.417c-.078-1.226-.132-2.51-.268-3.728a10.23,10.23,0,0,0-.189-1.162q.322.092.656.159c4.534.91,7.505-1.558,8.415-6.092a8.374,8.374,0,1,0-16.42-3.3c-.472,2.351-.629,3.769.654,5.584a4.1,4.1,0,0,0-3.172,3.235l-.035.172v.176l0,1.979-.71.054a1.146,1.146,0,0,1-.984-.407,5.875,5.875,0,0,1-1.342-2.2,1.146,1.146,0,0,1,0-1.064l1.377-2.694a1.168,1.168,0,0,0-.282-1.432l-2.295-1.969a1.146,1.146,0,0,1-.408-.984A15.009,15.009,0,0,1,192.536,251.8Z" transform="translate(0 0)" fill="none" stroke="#088" stroke-miterlimit="2.613" stroke-width="1.5" fill-rule="evenodd"/>
      <path id="Path_7325" data-name="Path 7325" d="M211.675,408.026a14.09,14.09,0,0,1-2.8-4.931c-.676-2.567-1.149-4.391-1.554-6.012s-.2-2.7.676-3.107,1.756.27,2.162,1.554.929,2.77,1.2,2.314a3.563,3.563,0,0,0,.068-.828c.017-.692,0-11.636,0-11.636s-.1-1.793,1.56-1.793,1.9,1.573,2,2.485.439,6.62.439,6.62-.068,1.216,1.891,1.283,7.195.929,8.141,1.875.946,1.486,1.013,3.85c0,.024,0,.047.007.384a42.471,42.471,0,0,1-.48,5.831,5.028,5.028,0,0,0,0,1.638v5.854a1.921,1.921,0,0,1-1.915,1.915H213.59a1.92,1.92,0,0,1-1.915-1.915v-5.381Zm10.057,4.332h-5.879a1.253,1.253,0,0,1-1.25-1.25v-1.486a1.253,1.253,0,0,1,1.25-1.25h5.879a1.254,1.254,0,0,1,1.25,1.25v1.486A1.253,1.253,0,0,1,221.733,412.358Z" transform="translate(-11.371 -121.376)" fill="none" stroke="#088" stroke-miterlimit="2.613" stroke-width="1.5" fill-rule="evenodd"/>
    </g>
  </g>
</svg>
