<svg xmlns="http://www.w3.org/2000/svg" width="48.991" height="28.775" viewBox="0 0 48.991 28.775">
  <defs>
    <style>
      .cls-1, .cls-2, .cls-3, .cls-4 {
        fill: none;
      }

      .cls-1, .cls-2, .cls-3 {
        stroke: #fff;
        stroke-width: 1.75px;
      }

      .cls-1, .cls-2 {
        stroke-linecap: round;
      }

      .cls-1, .cls-3 {
        stroke-linejoin: round;
      }

      .cls-5 {
        fill: #fff;
      }
    </style>
  </defs>
  <g id="a-hayper" transform="translate(0.939 0.96)">
    <path id="Path_60" data-name="Path 60" class="cls-1" d="M1225.19,1165.58h11.4l1.239-3.639.7-2.062s-.315,2.007-1.687,1.974-11.451,0-11.451,0l-3.266-9.831h16.982" transform="translate(-1221.518 -1142.839)"/>
    <path id="Path_61" data-name="Path 61" class="cls-1" d="M1211.54,1146.93h-2.8l-2.5,8.375" transform="translate(-1188.349 -1140.166)"/>
    <path id="Path_62" data-name="Path 62" class="cls-2" d="M1210.01,1158.69h-4.946" transform="translate(-1184.303 -1146.333)"/>
    <path id="Path_63" data-name="Path 63" class="cls-2" d="M1213.03,1158.69h-7.969" transform="translate(-1190.182 -1143.479)"/>
    <path id="Path_64" data-name="Path 64" class="cls-2" d="M1210.56,1158.69h-5.493" transform="translate(-1185.713 -1140.147)"/>
    <path id="Path_66" data-name="Path 66" class="cls-1" d="M1230.38,1148.46v-3.23h-4.594v3.23" transform="translate(-1214.527 -1139.281)"/>
    <path id="Path_67" data-name="Path 67" class="cls-3" d="M1230.84,1148.87v-3.632h-5.059v3.632" transform="translate(-1216.896 -1143.013)"/>
    <path id="Path_68" data-name="Path 68" class="cls-1" d="M1249.27,1141.93c.072-.094-5.06-8.585-5.06-8.585a2.27,2.27,0,0,0-2.986,0,2.359,2.359,0,0,0-.467,2.986l3.453,5.6" transform="translate(-1240.382 -1132.743)"/>
    <path id="Path_69" data-name="Path 69" class="cls-2" d="M1247.29,1144c-.594.042-2-.085-2.166.51" transform="translate(-1240.646 -1138.634)"/>
    <path id="Path_70" data-name="Path 70" class="cls-2" d="M1251.66,1136.77a8.863,8.863,0,0,0-2.166.807" transform="translate(-1247.1 -1134.844)"/>
    <g id="Path_5683" data-name="Path 5683" transform="translate(12.067 23.431)">
      <path id="Path_1" data-name="Path 1" class="cls-4" d="M1.781,0A1.781,1.781,0,1,0,3.562,1.781,1.781,1.781,0,0,0,1.781,0Z"/>
      <path id="Path_2" data-name="Path 2" class="cls-5" d="M1.781.75A1.031,1.031,0,1,0,2.812,1.781,1.032,1.032,0,0,0,1.781.75m0-.75A1.781,1.781,0,1,1,0,1.781,1.781,1.781,0,0,1,1.781,0Z"/>
    </g>
    <g id="Path_7204" data-name="Path 7204" transform="translate(3.418 23.431)">
      <path id="Path_3" data-name="Path 3" class="cls-4" d="M1.781,0A1.781,1.781,0,1,0,3.562,1.781,1.781,1.781,0,0,0,1.781,0Z"/>
      <path id="Path_4" data-name="Path 4" class="cls-5" d="M1.781.75A1.031,1.031,0,1,0,2.812,1.781,1.032,1.032,0,0,0,1.781.75m0-.75A1.781,1.781,0,1,1,0,1.781,1.781,1.781,0,0,1,1.781,0Z"/>
    </g>
    <g id="food" transform="translate(18.654)">
      <path id="Path_51" data-name="Path 51" class="cls-1" d="M1004.5,970.983s1.765-1.8,1.765-2.574-.941-2.316-.47-3.474a11.883,11.883,0,0,0,1.177-4.761V956.7h2.588s-.117,2.573,0,3.989,2.118,2.445,3.884,1.544,3.883-5.533,3.883-5.533h5.3s.588,1.544,0,2.316-4.118,5.855-5.648,7.013-4,2.573-4.472,3.217a5.51,5.51,0,0,0-.706,1.738" transform="translate(-1000.217 -944.405)"/>
      <path id="Path_52" data-name="Path 52" class="cls-1" d="M1024.73,961.673s1.166.329,3.661-1.433,2.4-3.58,2.4-3.58" transform="translate(-1010.538 -944.366)"/>
      <path id="Path_53" data-name="Path 53" class="cls-1" d="M998.641,957.688H1026.1" transform="translate(-997.577 -945.324)"/>
      <g id="Path_58" data-name="Path 58" transform="translate(12.015 -0.403)">
        <path id="Path_5" data-name="Path 5" class="cls-4" d="M2.076.4a1.916,1.916,0,0,1,2,1.815c0,1-.9.886-2.005.886s-2,.115-2-.886A1.916,1.916,0,0,1,2.076.4Z"/>
        <path id="Path_6" data-name="Path 6" class="cls-5" d="M2.076,1.153A1.172,1.172,0,0,0,.821,2.215.619.619,0,0,0,.827,2.3a2.421,2.421,0,0,0,.653.052l.276,0c.209,0,.432,0,.641,0l.276,0A2.42,2.42,0,0,0,3.326,2.3a.619.619,0,0,0,.005-.088A1.172,1.172,0,0,0,2.076,1.153m0-.75A1.916,1.916,0,0,1,4.082,2.215c0,1-.9.886-2.005.886S.071,3.216.071,2.215A1.916,1.916,0,0,1,2.076.4Z"/>
      </g>
      <path id="Path_55" data-name="Path 55" class="cls-2" d="M.036,1.443A3.82,3.82,0,0,1,1.372.031" transform="translate(5.38 8.46) rotate(-14)"/>
      <path id="Path_56" data-name="Path 56" class="cls-2" d="M1016.1,940.864c0-.005,1.731-2.2,6.453-2.63" transform="translate(-1008.466 -933.925)"/>
      <g id="Path_57" data-name="Path 57" transform="translate(2.353 1.998)">
        <path id="Path_7" data-name="Path 7" class="cls-4" d="M11.841,0C18.38,0,23.687,4.662,23.687,10.414c-.045.047-6.224,0-12.763,0S.079,10.461,0,10.414C0,4.662,5.3,0,11.841,0Z"/>
        <path id="Path_8" data-name="Path 8" class="cls-5" d="M11.841.75C6.007.75,1.211,4.694.781,9.683h.633c.694,0,1.612,0,2.772-.007C6,9.672,8.264,9.664,10.924,9.664c2.52,0,4.936.007,7.068.013,1.522,0,2.837.008,3.819.008.478,0,.832,0,1.094,0C22.475,4.694,17.676.75,11.841.75m0-.75C18.38,0,23.687,4.662,23.687,10.414c-.045.047-6.224,0-12.763,0S.079,10.461,0,10.414C0,4.662,5.3,0,11.841,0Z"/>
      </g>
      <path id="Path_59" data-name="Path 59" class="cls-2" d="M592.393,952.949c-.445,1.18-.414,2.047-3.237,3.4" transform="translate(-573.692 -940.536)"/>
    </g>
  </g>
</svg>
