<svg xmlns="http://www.w3.org/2000/svg" width="38.184" height="45.945" viewBox="0 0 38.184 45.945">
  <g id="Bon_free" data-name="Bon free" transform="translate(1.029 -2.584)">
    <path id="Path_7281" data-name="Path 7281" d="M182.647,242.158a2.221,2.221,0,0,1-2.214-2.214v-28.69l1.555-1.809.792.824,1.254.359-1.254,6.13L197.124,241.6a2.185,2.185,0,0,0,.454.554Zm3.326-37.151,2.069-2.333,2.494-.338-4.562,2.671Z" transform="translate(-180.433 -194.562)" fill="none" stroke="#088" stroke-linecap="round" stroke-linejoin="round" stroke-miterlimit="2.613" stroke-width="0.75" fill-rule="evenodd"/>
    <path id="Path_7282" data-name="Path 7282" d="M209.817,238.434a2.221,2.221,0,0,1-3.025-.81l-14.345-24.846,1.281-6.048s-2.531.125-2.594-3S195.57,201,195.57,201l2.334-1.922,2.153-1,.8-.373a2.786,2.786,0,0,1,3.622-2.344c3.25.691,1.991,4.185,1.991,4.185l5.766,1.81L226.58,226.2a2.221,2.221,0,0,1-.811,3.025l-15.952,9.21Z" transform="translate(-190.102 -190.581)" fill="none" stroke="#088" stroke-linecap="round" stroke-linejoin="round" stroke-miterlimit="2.613" stroke-width="0.75" fill-rule="evenodd"/>
    <path id="Path_7283" data-name="Path 7283" d="M236.416,266.829l9.3-5.371m-.125,21.269,9.3-5.371m-11.6,1.4,9.3-5.371m-11.6,1.4,9.3-5.371m-11.6,1.4,9.3-5.372" transform="translate(-225.483 -241.866)" fill="none" stroke="#088" stroke-linecap="round" stroke-linejoin="round" stroke-miterlimit="2.613" stroke-width="0.75" fill-rule="evenodd"/>
    <g id="Group_4010" data-name="Group 4010" transform="translate(-3617.451 -4576.657) rotate(-30)">
      <path id="Path_7297" data-name="Path 7297" d="M900.7,5795.9s-5.574-.815-8.293-4.69c-.068,0,.952-6.186,4.01-8.021s6.8,2.447,2.719,5.37-6.73,2.651-6.73,2.651" transform="translate(-45.48)" fill="none" stroke="#088" stroke-width="1.25"/>
      <path id="Path_7298" data-name="Path 7298" d="M892.631,5795.9s5.574-.815,8.293-4.69c.068,0-.952-6.186-4.011-8.021s-6.8,2.447-2.719,5.37,6.73,2.651,6.73,2.651" transform="translate(-54)" fill="none" stroke="#088" stroke-width="1.25"/>
      <path id="Path_7299" data-name="Path 7299" d="M.924.125a1.5,1.5,0,1,1-1.5,1.5A1.5,1.5,0,0,1,.924.125Z" transform="translate(846.11 5791.646)" fill="#088"/>
    </g>
    <path id="Path_7306" data-name="Path 7306" d="M5.855,41.42h8.334" transform="translate(-0.882)" fill="none" stroke="#088" stroke-linecap="round" stroke-width="0.75"/>
    <path id="Path_7307" data-name="Path 7307" d="M5.855,41.42h5.7" transform="translate(-0.882 -4.265)" fill="none" stroke="#088" stroke-linecap="round" stroke-width="0.75"/>
    <path id="Path_7308" data-name="Path 7308" d="M5.855,41.42H9.428" transform="translate(-0.882 -8.529)" fill="none" stroke="#088" stroke-linecap="round" stroke-width="0.75"/>
  </g>
</svg>
