<svg xmlns="http://www.w3.org/2000/svg" width="45.518" height="35.529" viewBox="0 0 45.518 35.529">
  <defs>
    <style>
      .cls-1, .cls-2 {
        fill: none;
        stroke: #fff;
        stroke-linecap: round;
        stroke-width: 1.75px;
      }

      .cls-2 {
        stroke-linejoin: round;
      }

      .cls-3 {
        fill: #fff;
      }
    </style>
  </defs>
  <g id="a-money" transform="translate(1.209 0.876)">
    <path id="Path_89" data-name="Path 89" class="cls-1" d="M1085.97,920.453s7.167-11.325,19.177-10.954" transform="translate(-1085.972 -897.431)"/>
    <path id="Path_90" data-name="Path 90" class="cls-2" d="M1101.55,942.807l2.712-2.413s8.911-.557,12.4-3.713" transform="translate(-1092.443 -909.389)"/>
    <path id="Path_91" data-name="Path 91" class="cls-1" d="M1122.76,906.54s2.324-11.139,15.109-7.8" transform="translate(-1101.255 -892.43)"/>
    <path id="Path_92" data-name="Path 92" class="cls-1" d="M1129.72,931.378a11.031,11.031,0,0,0,10.848,1.671" transform="translate(-1104.147 -907.057)"/>
    <path id="Path_93" data-name="Path 93" class="cls-2" d="M1105.01,918.454s10.073.186,11.622.557,2.906,2.6.581,3.528-6.973.742-6.973.742-2.131,4.27-4.649,4.641a11.647,11.647,0,0,1-5.036-.557" transform="translate(-1092.03 -901.373)"/>
    <path id="Path_94" data-name="Path 94" class="cls-2" d="M1148.27,890.75s.194-2.785,3.874-2.785,3.1,2.785,3.1,2.785v26.363a3.532,3.532,0,0,1-3.1,2.785,3.27,3.27,0,0,1-3.874-2.785" transform="translate(-1111.857 -887.966)"/>
    <path id="Path_95" data-name="Path 95" class="cls-1" d="M1154.276,895.588v23.764" transform="translate(-1114.353 -891.317)"/>
    <path id="Path_96" data-name="Path 96" class="cls-3" d="M-.722-11.211a1.237,1.237,0,0,0-.372-.921,3.287,3.287,0,0,0-1.235-.658,9.535,9.535,0,0,1-1.339-.544,2.6,2.6,0,0,1-1.6-2.426,2.45,2.45,0,0,1,.692-1.792A2.986,2.986,0,0,1-2.7-18.383v-1.432h1.1v1.444A2.749,2.749,0,0,1,.242-17.4a3.211,3.211,0,0,1,.653,2.09H-.765a2,2,0,0,0-.387-1.3A1.284,1.284,0,0,0-2.2-17.091a1.454,1.454,0,0,0-1.028.342,1.269,1.269,0,0,0-.369.979,1.2,1.2,0,0,0,.366.912,3.613,3.613,0,0,0,1.244.655,10.777,10.777,0,0,1,1.378.573,3.536,3.536,0,0,1,.842.6,2.374,2.374,0,0,1,.528.778A2.642,2.642,0,0,1,.947-11.22a2.4,2.4,0,0,1-.711,1.8,3.185,3.185,0,0,1-1.979.813v1.28H-2.832V-8.6a3.206,3.206,0,0,1-2.086-.932,2.944,2.944,0,0,1-.732-2.09h1.665a1.776,1.776,0,0,0,.436,1.283,1.626,1.626,0,0,0,1.229.453,1.739,1.739,0,0,0,1.189-.362A1.219,1.219,0,0,0-.722-11.211Z" transform="translate(34.513 29.462)"/>
  </g>
</svg>
