<svg xmlns="http://www.w3.org/2000/svg" xmlns:xlink="http://www.w3.org/1999/xlink" width="44" height="95" viewBox="0 0 44 95">
  <defs>
    <style>
      .cls-1 {
        fill: #fff;
        stroke: #707070;
      }

      .cls-2 {
        clip-path: url(#clip-path);
      }

      .cls-3 {
        fill: none;
      }

      .cls-4 {
        stroke: #fff;
        stroke-width: 2px;
      }
    </style>
    <clipPath id="clip-path">
      <rect id="Rectangle_1" data-name="Rectangle 1" class="cls-1" width="44" height="95" transform="translate(71 149)"/>
    </clipPath>
  </defs>
  <g id="Mask_Group_1" data-name="Mask Group 1" class="cls-2" transform="translate(-71 -149)">
    <g id="more_vert_black_24dp" transform="translate(71 174.5)">
      <path id="Path_1" data-name="Path 1" class="cls-3" d="M0,0H44V44H0Z"/>
      <path id="Path_2" data-name="Path 2" class="cls-4" d="M22,14.667A3.667,3.667,0,1,0,18.333,11,3.677,3.677,0,0,0,22,14.667Zm0,3.667A3.667,3.667,0,1,0,25.667,22,3.677,3.677,0,0,0,22,18.333Zm0,11A3.667,3.667,0,1,0,25.667,33,3.677,3.677,0,0,0,22,29.333Z"/>
    </g>
  </g>
</svg>
