<svg xmlns="http://www.w3.org/2000/svg" width="189.984" height="190" viewBox="0 0 189.984 190"><defs><style>.a{fill:#fff;}</style></defs><g transform="translate(-0.122 511.922)"><path class="a" d="M71.541-511.58a21.754,21.754,0,0,0-10.989,6.237,23.809,23.809,0,0,0-4.789,10.283,65.208,65.208,0,0,0-.371,6.757v4.2H50.083c-8.056,0-12.065,1.411-16.409,5.754S27.92-470,27.92-461.945v5.309H23.762c-6.088,0-8.91.52-12.362,2.19A19.442,19.442,0,0,0,1.19-443.271l-.928,2.413-.111,50.6C.076-345.783.114-339.4.633-337.207a20.324,20.324,0,0,0,15.778,14.961c1.708.3,17.263.371,52.531.3l50.118-.111,2.19-.854a19.529,19.529,0,0,0,11.323-10.172c1.782-3.564,2.265-6.237,2.265-12.474v-4.158h5.309c8.056,0,12.065-1.411,16.409-5.754s5.754-8.353,5.754-16.409v-5.309h4.2c6.163,0,8.873-.52,12.325-2.227a19.227,19.227,0,0,0,10.209-11.137l.928-2.413.111-50.118c.074-35.268,0-50.823-.3-52.531a20.225,20.225,0,0,0-14.924-15.778c-2-.483-9.43-.557-52.085-.52C95.412-511.877,72.357-511.728,71.541-511.58ZM173.187-503.6c3.824,1,6.2,3.044,8.019,6.868l.965,2.042v100.236l-1,2.116a12.486,12.486,0,0,1-6.46,6.2c-1.708.668-2.9.78-7.2.78h-5.2v-40.948c0-45.143.111-42.953-2.339-47.556a21.823,21.823,0,0,0-7.907-7.907c-4.6-2.45-2.413-2.339-47.556-2.339H63.559v-5.2c0-4.2.149-5.532.705-7.054a11.768,11.768,0,0,1,8.167-7.276c1.3-.371,12.994-.483,50.155-.483C164.352-504.155,171.368-504.081,173.187-503.6ZM147.46-475.272a11.388,11.388,0,0,1,5.606,5.346l1.262,2.339v101.349l-1,1.893a10.807,10.807,0,0,1-5.2,5.383c-2.3,1.225-2.413,1.262-7.8,1.374l-5.457.148-.111-41.319c-.111-38.943-.148-41.468-.817-43.4a20.566,20.566,0,0,0-13.588-13.588c-1.93-.668-4.455-.705-43.4-.817l-41.319-.111.148-5.457c.148-4.826.26-5.68,1.039-7.313a12.508,12.508,0,0,1,7.982-6.534c.631-.148,23.574-.223,51.046-.223l49.932.074Zm-28.586,27.435a13.175,13.175,0,0,1,6.608,5.829l1,1.893v101.721l-.891,1.819a12.935,12.935,0,0,1-5.94,5.754l-2.079.965H17.339l-2.079-.965A11.891,11.891,0,0,1,9.135-336.8l-1.077-2.339v-100.31l1.3-2.562a10.069,10.069,0,0,1,3.156-3.935c3.49-2.636-.445-2.45,54.61-2.487C112.823-448.468,117.092-448.431,118.874-447.837Z"/></g></svg>