<svg xmlns="http://www.w3.org/2000/svg" width="34.148" height="33.893" viewBox="0 0 34.148 33.893">
  <defs>
    <style>
      .cls-1, .cls-2 {
        fill: none;
        stroke: #fff;
        stroke-width: 1.75px;
      }

      .cls-2 {
        stroke-linecap: round;
      }
    </style>
  </defs>
  <g id="a-new" transform="translate(-56.312 -325.769)">
    <path id="Path_7469" data-name="Path 7469" class="cls-1" d="M1692.23,931.889c-.089-.91.116-5.221,3.539-7.194,4.13-.889,7.974,8.55,9.725,12.807s3.8,10.412-.308,12.019C1700.63,950.815,1694.2,943.942,1692.23,931.889Z" transform="translate(-1618 -598)"/>
    <path id="Path_7470" data-name="Path 7470" class="cls-1" d="M1695.36,924.969a68.294,68.294,0,0,0,3.359,12.953c3.587,8.795,6.728,11.418,6.728,11.418" transform="translate(-1618 -598)"/>
    <path id="Path_7471" data-name="Path 7471" class="cls-1" d="M1697.5,934.477a3.975,3.975,0,0,1,4.591,2.4c.6,2.159,1.158,3.433-1.686,4.753" transform="translate(-1618 -598)"/>
    <path id="Path_7472" data-name="Path 7472" class="cls-1" d="M1701.44,935.777s-2.925,2.763.975,2.356" transform="translate(-1618 -598)"/>
    <path id="Path_7473" data-name="Path 7473" class="cls-2" d="M1680.23,942.176a3.625,3.625,0,0,0-2.8,3.433" transform="translate(-1618 -598)"/>
    <path id="Path_7474" data-name="Path 7474" class="cls-1" d="M1692.23,930.844a7.714,7.714,0,0,1-3.219,5.045,52.857,52.857,0,0,1-6.557,3.6s-6.729-.014-7.265,5.966c.327,5.91,6.918,5.326,9.372,4.106,2.588-1.517,7.556-4.283,15.544-1.471" transform="translate(-1618 -598)"/>
    <path id="Path_7475" data-name="Path 7475" class="cls-1" d="M1683.28,950a51.2,51.2,0,0,1,3.845,3.982c1,1.3,1.393,2.761,1.942,2.8s5.058-.85,4.306-2.8-4.052-3.57-7.176-5.493-4.154-6.248-3.707-9.063" transform="translate(-1618 -598)"/>
  </g>
</svg>
