<svg id="Paid" xmlns="http://www.w3.org/2000/svg" width="21.527" height="23.375" viewBox="0 0 21.527 23.375">
  <path id="Path_7803" data-name="Path 7803" d="M-543.752,4480.509l1.849-1.84,2.014,2.014,2.014-2.014,2.014,2.014,2.014-2.014v14.289" transform="translate(555 -4478)" fill="none" stroke="#121212" stroke-linecap="round" stroke-linejoin="round" stroke-width="0.75"/>
  <path id="Path_7804" data-name="Path 7804" d="M-533.848,4484.838v8.12l-2.014-2.014-2.014,2.014-2.014-2.014-2.014,2.014-2.014-2.014-2.014,2.014-2.014-2.014-2.014,2.014v-10.364" transform="translate(555 -4469.958)" fill="none" stroke="#121212" stroke-linecap="round" stroke-linejoin="round" stroke-width="0.75"/>
  <g id="Ellipse_337" data-name="Ellipse 337" fill="none" stroke="#121212" stroke-width="0.75">
    <circle cx="6.5" cy="6.5" r="6.5" stroke="none"/>
    <circle cx="6.5" cy="6.5" r="6.125" fill="none"/>
  </g>
  <line id="Line_952" data-name="Line 952" x2="5" transform="translate(12.5 15.033)" fill="none" stroke="#121212" stroke-linecap="round" stroke-width="0.75"/>
  <line id="Line_953" data-name="Line 953" x2="4.5" transform="translate(11 17.565)" fill="none" stroke="#121212" stroke-linecap="round" stroke-width="0.75"/>
  <line id="Line_954" data-name="Line 954" x2="0.5" transform="translate(17.5 17.565)" fill="none" stroke="#121212" stroke-linecap="round" stroke-width="0.75"/>
  <path id="Path_7808" data-name="Path 7808" d="M-517.416,4002.941a1.7,1.7,0,0,0-1.915-1.753c-1.984.046-2.422,2.169-.992,2.769s3,.345,2.907,2.076-3.909,1.558-3.955-.334" transform="translate(536.413 -3995.908)" fill="none" stroke="#121212" stroke-linecap="round" stroke-width="0.75"/>
  <path id="Path_7809" data-name="Path 7809" d="M-520,4000.266v1.1" transform="translate(537.15 -3996.084)" fill="none" stroke="#121212" stroke-linecap="round" stroke-width="0.75"/>
  <path id="Path_7810" data-name="Path 7810" d="M-520,4000.443v.858" transform="translate(537.15 -3988.953)" fill="none" stroke="#121212" stroke-linecap="round" stroke-width="0.75"/>
  <path id="tik" d="M293.076,102.679l2.379,2.587,4.6-6.618" transform="translate(-289.932 -95.208)" fill="none" stroke="#121212" stroke-linecap="round" stroke-linejoin="round" stroke-width="1" fill-rule="evenodd"/>
</svg>
