<svg xmlns="http://www.w3.org/2000/svg" width="40.407" height="49.137" viewBox="0 0 40.407 49.137">
  <g id="returned" transform="translate(-107.163 -137.603)">
    <path id="Path_7284" data-name="Path 7284" d="M94.63,514.109V478.244a1.387,1.387,0,0,0-1.383-1.383s-11.239.069-12.789.069" transform="translate(47.83 -334.076)" fill="none" stroke="#088" stroke-linecap="round" stroke-linejoin="round" stroke-width="0.75" fill-rule="evenodd"/>
    <line id="Line_126" data-name="Line 126" transform="translate(142.46 186.364)" fill="none" stroke="#088" stroke-linecap="round" stroke-linejoin="round" stroke-width="0.75"/>
    <path id="Path_7285" data-name="Path 7285" d="M259.942,706.362v.793c0,3.007-2.131,5.468-4.736,5.468" transform="translate(-112.746 -526.258)" fill="none" stroke="#088" stroke-linecap="round" stroke-linejoin="round" stroke-width="0.75" fill-rule="evenodd"/>
    <path id="Path_7286" data-name="Path 7286" d="M118.249,712.622c2.6,0,4.736-2.461,4.736-5.468v-.793h22.271" transform="translate(1.94 -526.258)" fill="none" stroke="#088" stroke-linecap="round" stroke-linejoin="round" stroke-width="0.75" fill-rule="evenodd"/>
    <path id="Path_7287" data-name="Path 7287" d="M41.832,486.292h5.123v-6.666a2.774,2.774,0,0,0-2.766-2.766h-.974a2.774,2.774,0,0,0-2.766,2.766v5.283A1.387,1.387,0,0,0,41.832,486.292Z" transform="translate(67.089 -334.076)" fill="none" stroke="#088" stroke-linecap="round" stroke-linejoin="round" stroke-width="0.75" fill-rule="evenodd"/>
    <line id="Line_128" data-name="Line 128" x1="13.822" transform="translate(124.124 170.672)" fill="none" stroke="#088" stroke-linecap="round" stroke-linejoin="round" stroke-width="0.75"/>
    <line id="Line_129" data-name="Line 129" x1="7.242" transform="translate(124.124 175.794)" fill="none" stroke="#088" stroke-linecap="round" stroke-linejoin="round" stroke-width="0.75"/>
    <ellipse id="Ellipse_55" data-name="Ellipse 55" cx="1.26" cy="1.26" rx="1.26" ry="1.26" transform="translate(119.124 169.412)" fill="none" stroke="#088" stroke-linecap="round" stroke-linejoin="round" stroke-width="0.75"/>
    <ellipse id="Ellipse_56" data-name="Ellipse 56" cx="1.26" cy="1.26" rx="1.26" ry="1.26" transform="translate(119.124 174.534)" fill="none" stroke="#088" stroke-linecap="round" stroke-linejoin="round" stroke-width="0.75"/>
    <path id="Path_7293" data-name="Path 7293" d="M72.83,476.861H63.448a2.774,2.774,0,0,1,2.766,2.766V515.37a5.085,5.085,0,0,0,5.07,5.07H94.63" transform="translate(47.83 -334.076)" fill="none" stroke="#088" stroke-linecap="round" stroke-linejoin="round" stroke-width="0.75" fill-rule="evenodd"/>
    <g id="Group_4014" data-name="Group 4014" transform="translate(96.783 122.141)">
      <path id="Path_7292" data-name="Path 7292" d="M119.366,454.049l2.808-2.028,2.3-1.659a1.1,1.1,0,0,1,1.746.893v7.375a1.1,1.1,0,0,1-1.746.893l-2.3-1.659-2.808-2.028a1.1,1.1,0,0,1,0-1.785Z" transform="translate(-95.018 -434.297)" fill="none" stroke="#088" stroke-width="0.75" fill-rule="evenodd"/>
    </g>
    <g id="hayper" transform="translate(66.695 -1049.631)">
      <path id="Path_30" data-name="Path 30" d="M50.822,1200.033H61.49a1.063,1.063,0,0,1,.884,1.547c-.442,1.437-1.382,4.588-1.382,4.588a1.349,1.349,0,0,1-1.417.957H51.052s-.553-.021-.893-.957-2.507-8.105-2.507-8.105a1.051,1.051,0,0,0-.942-.749h-2.8" transform="translate(7.862 4.571)" fill="none" stroke="#088" stroke-linecap="round" stroke-width="0.75"/>
      <line id="Line_2" data-name="Line 2" x2="8.285" transform="translate(59.647 1206.683)" fill="none" stroke="#088" stroke-linecap="round" stroke-width="0.75"/>
      <line id="Line_3" data-name="Line 3" x2="6.779" transform="translate(60.401 1208.942)" fill="none" stroke="#088" stroke-linecap="round" stroke-width="0.75"/>
      <g id="Ellipse_33" data-name="Ellipse 33" transform="translate(58.561 1212.706)" fill="none" stroke="#088" stroke-width="0.75">
        <circle cx="1.238" cy="1.238" r="1.238" stroke="none"/>
        <circle cx="1.238" cy="1.238" r="0.863" fill="none"/>
      </g>
      <g id="Ellipse_34" data-name="Ellipse 34" transform="translate(65.987 1212.706)" fill="none" stroke="#088" stroke-width="0.75">
        <circle cx="1.238" cy="1.238" r="1.238" stroke="none"/>
        <circle cx="1.238" cy="1.238" r="0.863" fill="none"/>
      </g>
    </g>
  </g>
</svg>
