<svg xmlns="http://www.w3.org/2000/svg" width="90.018" height="80" viewBox="0 0 90.018 80">
  <g id="hayper" transform="translate(-50.776 -1184.787)">
    <path id="Path_30" data-name="Path 30" d="M76.686,1210.165h50.6s6.293.522,4.2,7.314-6.555,21.682-6.555,21.682-1.013,4.522-6.723,4.522H77.775s-2.622-.1-4.236-4.522-11.891-38.309-11.891-38.309-1.056-3.539-4.469-3.539H43.914" transform="translate(7.862 4.571)" fill="none" stroke="#088" stroke-linecap="round" stroke-width="2"/>
    <line id="Line_2" data-name="Line 2" x2="39.303" transform="translate(89.118 1224.558)" fill="none" stroke="#088" stroke-linecap="round" stroke-width="2"/>
    <line id="Line_3" data-name="Line 3" x2="32.157" transform="translate(92.691 1235.254)" fill="none" stroke="#088" stroke-linecap="round" stroke-width="2"/>
    <g id="Ellipse_33" data-name="Ellipse 33" transform="translate(83.966 1253.045)" fill="none" stroke="#088" stroke-width="2">
      <circle cx="5.871" cy="5.871" r="5.871" stroke="none"/>
      <circle cx="5.871" cy="5.871" r="4.871" fill="none"/>
    </g>
    <g id="Ellipse_34" data-name="Ellipse 34" transform="translate(119.192 1253.045)" fill="none" stroke="#088" stroke-width="2">
      <circle cx="5.871" cy="5.871" r="5.871" stroke="none"/>
      <circle cx="5.871" cy="5.871" r="4.871" fill="none"/>
    </g>
    <rect id="Rectangle_1292" data-name="Rectangle 1292" width="25" height="24" transform="translate(86.776 1184.787)" fill="none"/>
  </g>
</svg>
