<svg xmlns="http://www.w3.org/2000/svg" width="40.407" height="44.33" viewBox="0 0 40.407 44.33">
  <g id="buy" transform="translate(-107.163 -142.41)">
    <path id="Path_7284" data-name="Path 7284" d="M94.63,514.109V478.244a1.387,1.387,0,0,0-1.383-1.383h-29.8a2.774,2.774,0,0,1,2.766,2.766V515.37a5.085,5.085,0,0,0,5.07,5.07H94.63" transform="translate(47.83 -334.076)" fill="none" stroke="#088" stroke-linecap="round" stroke-linejoin="round" stroke-width="0.75" fill-rule="evenodd"/>
    <line id="Line_126" data-name="Line 126" transform="translate(142.46 186.364)" fill="none" stroke="#088" stroke-linecap="round" stroke-linejoin="round" stroke-width="0.75"/>
    <path id="Path_7285" data-name="Path 7285" d="M259.942,706.362v.793c0,3.007-2.131,5.468-4.736,5.468" transform="translate(-112.746 -526.258)" fill="none" stroke="#088" stroke-linecap="round" stroke-linejoin="round" stroke-width="0.75" fill-rule="evenodd"/>
    <path id="Path_7286" data-name="Path 7286" d="M118.249,712.622c2.6,0,4.736-2.461,4.736-5.468v-.793h22.271" transform="translate(1.94 -526.258)" fill="none" stroke="#088" stroke-linecap="round" stroke-linejoin="round" stroke-width="0.75" fill-rule="evenodd"/>
    <path id="Path_7287" data-name="Path 7287" d="M41.832,486.292h5.123v-6.666a2.774,2.774,0,0,0-2.766-2.766h-.974a2.774,2.774,0,0,0-2.766,2.766v5.283A1.387,1.387,0,0,0,41.832,486.292Z" transform="translate(67.089 -334.076)" fill="none" stroke="#088" stroke-linecap="round" stroke-linejoin="round" stroke-width="0.75" fill-rule="evenodd"/>
    <line id="Line_128" data-name="Line 128" x1="13.822" transform="translate(124.124 170.672)" fill="none" stroke="#088" stroke-linecap="round" stroke-linejoin="round" stroke-width="0.75"/>
    <line id="Line_129" data-name="Line 129" x1="7.242" transform="translate(124.124 175.794)" fill="none" stroke="#088" stroke-linecap="round" stroke-linejoin="round" stroke-width="0.75"/>
    <ellipse id="Ellipse_55" data-name="Ellipse 55" cx="1.26" cy="1.26" rx="1.26" ry="1.26" transform="translate(119.124 169.412)" fill="none" stroke="#088" stroke-linecap="round" stroke-linejoin="round" stroke-width="0.75"/>
    <ellipse id="Ellipse_56" data-name="Ellipse 56" cx="1.26" cy="1.26" rx="1.26" ry="1.26" transform="translate(119.124 174.534)" fill="none" stroke="#088" stroke-linecap="round" stroke-linejoin="round" stroke-width="0.75"/>
    <g id="date" transform="translate(-126.06 -40.833)">
      <g id="Rectangle_795" data-name="Rectangle 795" transform="translate(246.249 189.147)" fill="none" stroke="#088" stroke-width="0.75">
        <rect width="16.568" height="16.26" rx="3" stroke="none"/>
        <rect x="0.375" y="0.375" width="15.818" height="15.51" rx="2.625" fill="none"/>
      </g>
      <g id="Union_32" data-name="Union 32" transform="translate(246.556 193.961)" fill="none">
        <path d="M12.021,9.267a.5.5,0,0,1-.5-.5V7.629a.5.5,0,0,1,.5-.5H13.2a.5.5,0,0,1,.5.5V8.768a.5.5,0,0,1-.5.5Zm-4.635,0a.5.5,0,0,1-.5-.5V7.629a.5.5,0,0,1,.5-.5H8.567a.5.5,0,0,1,.5.5V8.768a.5.5,0,0,1-.5.5Zm-4.636,0a.5.5,0,0,1-.5-.5V7.629a.5.5,0,0,1,.5-.5H3.932a.5.5,0,0,1,.5.5V8.768a.5.5,0,0,1-.5.5ZM12.021,5.7a.5.5,0,0,1-.5-.5V4.064a.5.5,0,0,1,.5-.5H13.2a.5.5,0,0,1,.5.5V5.2a.5.5,0,0,1-.5.5Zm-4.635,0a.5.5,0,0,1-.5-.5V4.064a.5.5,0,0,1,.5-.5H8.567a.5.5,0,0,1,.5.5V5.2a.5.5,0,0,1-.5.5ZM2.75,2.139a.5.5,0,0,1-.5-.5V.5a.5.5,0,0,1,.5-.5H3.932a.5.5,0,0,1,.5.5V1.639a.5.5,0,0,1-.5.5Zm9.271,0a.5.5,0,0,1-.5-.5V.5a.5.5,0,0,1,.5-.5H13.2a.5.5,0,0,1,.5.5V1.639a.5.5,0,0,1-.5.5Zm-4.635,0a.5.5,0,0,1-.5-.5V.5a.5.5,0,0,1,.5-.5H8.567a.5.5,0,0,1,.5.5V1.639a.5.5,0,0,1-.5.5Z" stroke="none"/>
        <path d="M 8.567500114440918 8.767800331115723 L 8.567100524902344 7.628900527954102 L 7.385900497436523 7.629300117492676 L 7.386300086975098 8.767300605773926 L 8.567100524902344 8.767300605773926 L 8.567500114440918 8.767800331115723 M 13.20250034332275 8.767300605773926 L 13.20300006866455 7.628900527954102 L 12.02180004119873 7.629300117492676 L 12.02130031585693 8.767300605773926 L 13.20250034332275 8.767300605773926 M 3.931600570678711 8.767300605773926 L 3.932100296020508 7.628900527954102 L 2.750900268554688 7.629300117492676 L 2.750400304794312 8.767300605773926 L 3.931600570678711 8.767300605773926 M 13.20300006866455 5.203300476074219 L 13.20250034332275 5.202900409698486 L 13.20300006866455 4.064000129699707 L 12.02180004119873 4.064400196075439 L 12.02130031585693 5.203300476074219 L 13.20300006866455 5.203300476074219 M 8.567100524902344 5.203300476074219 L 8.567500114440918 5.202900409698486 L 8.567100524902344 4.064000129699707 L 7.385900497436523 4.064400196075439 L 7.386300086975098 5.203300476074219 L 8.567100524902344 5.203300476074219 M 3.932100296020508 1.639300346374512 L 3.931600332260132 1.638900279998779 L 3.932100296020508 0.5000002980232239 L 2.750900268554688 0.5004003047943115 L 2.750400304794312 1.639300346374512 L 3.932100296020508 1.639300346374512 M 8.567500114440918 1.638900279998779 L 8.567100524902344 0.5000002980232239 L 7.385900497436523 0.4995003044605255 L 7.386300086975098 1.638400316238403 L 8.567100524902344 1.638400316238403 L 8.567500114440918 1.638900279998779 M 13.20250034332275 1.638400316238403 L 13.20300006866455 0.5000002980232239 L 12.02180004119873 0.4995003044605255 L 12.02130031585693 1.638400316238403 L 13.20250034332275 1.638400316238403 M 13.20300006866455 9.267300605773926 L 12.02130031585693 9.267300605773926 C 11.74590015411377 9.267300605773926 11.52180004119873 9.044100761413574 11.52180004119873 8.767800331115723 L 11.52180004119873 7.629300117492676 C 11.52180004119873 7.353000164031982 11.74590015411377 7.128900527954102 12.02130031585693 7.128900527954102 L 13.20300006866455 7.128900527954102 C 13.4793004989624 7.128900527954102 13.70250034332275 7.353000164031982 13.70250034332275 7.629300117492676 L 13.70250034332275 8.767800331115723 C 13.70250034332275 9.044100761413574 13.4793004989624 9.267300605773926 13.20300006866455 9.267300605773926 Z M 8.567100524902344 9.267300605773926 L 7.386300086975098 9.267300605773926 C 7.110000133514404 9.267300605773926 6.885900497436523 9.044100761413574 6.885900497436523 8.767800331115723 L 6.885900497436523 7.629300117492676 C 6.885900497436523 7.353000164031982 7.110000133514404 7.128900527954102 7.386300086975098 7.128900527954102 L 8.567100524902344 7.128900527954102 C 8.843400001525879 7.128900527954102 9.067500114440918 7.353000164031982 9.067500114440918 7.629300117492676 L 9.067500114440918 8.767800331115723 C 9.067500114440918 9.044100761413574 8.843400001525879 9.267300605773926 8.567100524902344 9.267300605773926 Z M 3.932100296020508 9.267300605773926 L 2.750400304794312 9.267300605773926 C 2.475000381469727 9.267300605773926 2.250900268554688 9.044100761413574 2.250900268554688 8.767800331115723 L 2.250900268554688 7.629300117492676 C 2.250900268554688 7.353000164031982 2.475000381469727 7.128900527954102 2.750400304794312 7.128900527954102 L 3.932100296020508 7.128900527954102 C 4.208400249481201 7.128900527954102 4.431600093841553 7.353000164031982 4.431600093841553 7.629300117492676 L 4.431600093841553 8.767800331115723 C 4.431600093841553 9.044100761413574 4.208400249481201 9.267300605773926 3.932100296020508 9.267300605773926 Z M 13.20300006866455 5.703300476074219 L 12.02130031585693 5.703300476074219 C 11.74590015411377 5.703300476074219 11.52180004119873 5.47920036315918 11.52180004119873 5.202900409698486 L 11.52180004119873 4.064400196075439 C 11.52180004119873 3.788100242614746 11.74590015411377 3.564000368118286 12.02130031585693 3.564000368118286 L 13.20300006866455 3.564000368118286 C 13.4793004989624 3.564000368118286 13.70250034332275 3.788100242614746 13.70250034332275 4.064400196075439 L 13.70250034332275 5.202900409698486 C 13.70250034332275 5.47920036315918 13.4793004989624 5.703300476074219 13.20300006866455 5.703300476074219 Z M 8.567100524902344 5.703300476074219 L 7.386300086975098 5.703300476074219 C 7.110000133514404 5.703300476074219 6.885900497436523 5.47920036315918 6.885900497436523 5.202900409698486 L 6.885900497436523 4.064400196075439 C 6.885900497436523 3.788100242614746 7.110000133514404 3.564000368118286 7.386300086975098 3.564000368118286 L 8.567100524902344 3.564000368118286 C 8.843400001525879 3.564000368118286 9.067500114440918 3.788100242614746 9.067500114440918 4.064400196075439 L 9.067500114440918 5.202900409698486 C 9.067500114440918 5.47920036315918 8.843400001525879 5.703300476074219 8.567100524902344 5.703300476074219 Z M 3.932100296020508 2.139300346374512 L 2.750400304794312 2.139300346374512 C 2.475000381469727 2.139300346374512 2.250900268554688 1.915200352668762 2.250900268554688 1.638900279998779 L 2.250900268554688 0.5004003047943115 C 2.250900268554688 0.2241003066301346 2.475000381469727 3.028869741683593e-07 2.750400304794312 3.028869741683593e-07 L 3.932100296020508 3.028869741683593e-07 C 4.208400249481201 3.028869741683593e-07 4.431600093841553 0.2241003066301346 4.431600093841553 0.5004003047943115 L 4.431600093841553 1.638900279998779 C 4.431600093841553 1.915200352668762 4.208400249481201 2.139300346374512 3.932100296020508 2.139300346374512 Z M 13.20300006866455 2.138400316238403 L 12.02130031585693 2.138400316238403 C 11.74590015411377 2.138400316238403 11.52180004119873 1.914300322532654 11.52180004119873 1.638900279998779 L 11.52180004119873 0.4995003044605255 C 11.52180004119873 0.2232003062963486 11.74590015411377 3.028869741683593e-07 12.02130031585693 3.028869741683593e-07 L 13.20300006866455 3.028869741683593e-07 C 13.4793004989624 3.028869741683593e-07 13.70250034332275 0.2232003062963486 13.70250034332275 0.4995003044605255 L 13.70250034332275 1.638900279998779 C 13.70250034332275 1.914300322532654 13.4793004989624 2.138400316238403 13.20300006866455 2.138400316238403 Z M 8.567100524902344 2.138400316238403 L 7.386300086975098 2.138400316238403 C 7.110000133514404 2.138400316238403 6.885900497436523 1.914300322532654 6.885900497436523 1.638900279998779 L 6.885900497436523 0.4995003044605255 C 6.885900497436523 0.2232003062963486 7.110000133514404 3.028869741683593e-07 7.386300086975098 3.028869741683593e-07 L 8.567100524902344 3.028869741683593e-07 C 8.843400001525879 3.028869741683593e-07 9.067500114440918 0.2232003062963486 9.067500114440918 0.4995003044605255 L 9.067500114440918 1.638900279998779 C 9.067500114440918 1.914300322532654 8.843400001525879 2.138400316238403 8.567100524902344 2.138400316238403 Z" stroke="none" fill="#088"/>
      </g>
      <line id="Line_75" data-name="Line 75" y2="2.912" transform="translate(250.652 187.996)" fill="none" stroke="#088" stroke-linecap="round" stroke-width="0.75"/>
      <line id="Line_76" data-name="Line 76" y2="2.912" transform="translate(258.417 187.996)" fill="none" stroke="#088" stroke-linecap="round" stroke-width="0.75"/>
      <line id="Line_77" data-name="Line 77" x1="15.95" transform="translate(246.417 191.896)" fill="none" stroke="#088" stroke-width="0.75"/>
    </g>
    <g id="Rectangle_1253" data-name="Rectangle 1253" transform="translate(122.747 156.692)" fill="#088" stroke="#088" stroke-width="0.5">
      <rect width="2.181" height="2.139" rx="0.5" stroke="none"/>
      <rect x="0.25" y="0.25" width="1.681" height="1.639" rx="0.25" fill="none"/>
    </g>
  </g>
</svg>
