<svg xmlns="http://www.w3.org/2000/svg" width="29.519" height="18.389" viewBox="0 0 29.519 18.389">
  <g id="resturant_litlle" data-name="resturant  litlle" transform="translate(0.375)">
    <path id="Path_5521" data-name="Path 5521" d="M16.121,22.134c0,.048,0,4.732,0,4.779a1.9,1.9,0,0,1-1.8,1.855H1.8a1.913,1.913,0,0,1-1.8-2V2A1.913,1.913,0,0,1,1.8,0H14.318a1.914,1.914,0,0,1,1.8,2l0,3.834" transform="translate(0 18.014) rotate(-90)" fill="none" stroke="#ffffff" stroke-linecap="round" stroke-linejoin="round" stroke-width="0.75" fill-rule="evenodd"/>
    <path id="Path_5522" data-name="Path 5522" d="M11.111,24.708l.009-3.446v3.446H.844a.936.936,0,0,1-.844-1V1A.935.935,0,0,1,.844,0H3.209a1.056,1.056,0,0,1,.778.745c.268.723,1.681.723,1.974.723s1.706,0,1.973-.723A1.057,1.057,0,0,1,8.713,0h2.4a.935.935,0,0,1,.844,1V3.463" transform="translate(2.067 15.963) rotate(-90)" fill="none" stroke="#ffffff" stroke-linecap="round" stroke-linejoin="round" stroke-width="0.75" fill-rule="evenodd"/>
    <path id="Path_5618" data-name="Path 5618" d="M0,0H1.481" transform="translate(2.043 10.71) rotate(-90)" fill="none" stroke="#ffffff" stroke-linecap="round" stroke-width="0.75"/>
    <g id="food" transform="translate(5.716 0)">
      <path id="Path_51" data-name="Path 51" d="M1004.5,965.255s1.057-1.079,1.057-1.542-.564-1.387-.282-2.081a7.118,7.118,0,0,0,.7-2.852V956.7h1.55s-.07,1.542,0,2.389a1.562,1.562,0,0,0,2.326.925c1.057-.54,2.326-3.314,2.326-3.314h3.172s.352.925,0,1.388a32.842,32.842,0,0,1-3.383,4.2,29.486,29.486,0,0,0-2.678,1.927,3.3,3.3,0,0,0-.423,1.041" transform="translate(-1001.933 -949.335)" fill="none" stroke="#ffffff" stroke-linecap="round" stroke-linejoin="round" stroke-width="0.5"/>
      <path id="Path_52" data-name="Path 52" d="M1024.732,959.663s.7.2,2.193-.858,1.436-2.144,1.436-2.144" transform="translate(-1016.23 -949.296)" fill="none" stroke="#ffffff" stroke-linecap="round" stroke-linejoin="round" stroke-width="0.5"/>
      <path id="Path_53" data-name="Path 53" d="M998.641,957.688h17.087" transform="translate(-998.641 -950.282)" fill="none" stroke="#ffffff" stroke-linecap="round" stroke-linejoin="round" stroke-width="0.75"/>
      <g id="Path_58" data-name="Path 58" transform="translate(7.168 -0.403)" fill="none" stroke-linecap="round">
        <path d="M1.272.4a1.148,1.148,0,0,1,1.2,1.086c0,.6-.538.53-1.2.53s-1.2.069-1.2-.53A1.148,1.148,0,0,1,1.272.4Z" stroke="none"/>
        <path d="M 1.272283673286438 1.152709126472473 C 1.137826561927795 1.152709126472473 1.014837503433228 1.199214696884155 0.9313709735870361 1.271341323852539 C 0.9788244962692261 1.271241545677185 1.027560353279114 1.270731449127197 1.077363729476929 1.27022910118103 C 1.140883684158325 1.269579172134399 1.205983638763428 1.268929123878479 1.272283673286438 1.268929123878479 C 1.338603615760803 1.268929123878479 1.403703689575195 1.269579172134399 1.46721363067627 1.27022910118103 C 1.517011404037476 1.270731568336487 1.565734386444092 1.271241545677185 1.61319637298584 1.271341323852539 C 1.529729843139648 1.199214696884155 1.406740784645081 1.152709126472473 1.272283673286438 1.152709126472473 M 1.272283673286438 0.4027092456817627 C 1.935613632202148 0.4027092456817627 2.47334361076355 0.8888291120529175 2.47334361076355 1.488479137420654 C 2.47334361076355 1.975658178329468 2.11833930015564 2.021362543106079 1.629481554031372 2.021362543106079 C 1.51662290096283 2.021362543106079 1.396698594093323 2.018929243087769 1.272283673286438 2.018929243087769 C 1.147909283638 2.018929243087769 1.027912378311157 2.021362543106079 0.9150859117507935 2.021362543106079 C 0.4261713027954102 2.021362543106079 0.07122373580932617 1.97569477558136 0.07122373580932617 1.488479137420654 C 0.07122373580932617 0.8888291120529175 0.6089537143707275 0.4027092456817627 1.272283673286438 0.4027092456817627 Z" stroke="none" fill="#ffffff"/>
      </g>
      <path id="Path_55" data-name="Path 55" d="M0,.747A2.021,2.021,0,0,1,.707,0" transform="translate(3.855 5.176) rotate(-14)" fill="none" stroke="#ffffff" stroke-linecap="round" stroke-width="0.5"/>
      <path id="Path_56" data-name="Path 56" d="M1016.485,939.275a5.357,5.357,0,0,1,3.034-1.041" transform="translate(-1011.078 -935.265)" fill="none" stroke="#ffffff" stroke-linecap="round" stroke-width="0.5"/>
      <g id="Subtraction_7" data-name="Subtraction 7" transform="translate(1.41 1.197)" fill="none">
        <path d="M14.185,6.446H0A6.122,6.122,0,0,1,2.077,1.888,7.42,7.42,0,0,1,7.092,0a7.42,7.42,0,0,1,5.015,1.888,6.122,6.122,0,0,1,2.077,4.557Z" stroke="none"/>
        <path d="M 13.38055324554443 5.695541381835938 C 13.20174598693848 4.47091007232666 12.58623313903809 3.336349487304688 11.60311889648438 2.442911148071289 C 10.40185832977295 1.351221203804016 8.799888610839844 0.7500011920928955 7.092308521270752 0.7500011920928955 C 5.384848594665527 0.7500011920928955 3.782958745956421 1.351221203804016 2.58172869682312 2.442901134490967 C 1.598636627197266 3.336340427398682 0.983129620552063 4.470943927764893 0.8043190240859985 5.695541381835938 L 13.38055324554443 5.695541381835938 M 14.1848783493042 6.445541381835938 L -1.302185069107509e-06 6.445541381835938 C -1.302185069107509e-06 4.723701000213623 0.7378386855125427 3.105191230773926 2.077308654785156 1.887871146202087 C 3.416878700256348 0.6704611778259277 5.197908878326416 1.167755158348882e-06 7.092308521270752 1.167755158348882e-06 C 8.986818313598633 1.167755158348882e-06 10.76792907714844 0.6704611778259277 12.10752868652344 1.887871146202087 C 13.4470386505127 3.105191230773926 14.18478870391846 4.723701000213623 14.1848783493042 6.445261001586914 L 14.1848783493042 6.445541381835938 Z" stroke="none" fill="#ffffff"/>
      </g>
      <path id="Path_59" data-name="Path 59" d="M591.095,952.949c-.267.707-.248,1.226-1.939,2.039" transform="translate(-579.893 -945.513)" fill="none" stroke="#ffffff" stroke-linecap="round" stroke-width="0.5"/>
    </g>
  </g>
</svg>
