<svg xmlns="http://www.w3.org/2000/svg" width="31.388" height="32.093" viewBox="0 0 31.388 32.093">
  <g id="visitor" transform="translate(-369.528 -521.728)">
    <path id="Path_6173" data-name="Path 6173" d="M360.893,336.775a4.1,4.1,0,0,1,4.038,4.162c0,2.3-1.808,5.032-4.038,5.032s-4.038-2.733-4.038-5.032A4.1,4.1,0,0,1,360.893,336.775Z" transform="translate(24.313 198.656)" fill="none" stroke="#1a1818" stroke-miterlimit="2.613" stroke-width="0.75" fill-rule="evenodd"/>
    <path id="Path_6174" data-name="Path 6174" d="M356.856,358.89s2.329.683,5-1.615a4.705,4.705,0,0,0,3.075,1.615" transform="translate(24.312 180.703)" fill="none" stroke="#1a1818" stroke-miterlimit="2.613" stroke-width="0.5" fill-rule="evenodd"/>
    <path id="Path_6175" data-name="Path 6175" d="M375.1,437.275h1.8l.994,5.529h-3.789Z" transform="translate(9.205 110.643)" fill="none" stroke="#1a1818" stroke-miterlimit="2.613" stroke-width="0.5" fill-rule="evenodd"/>
    <path id="Path_6176" data-name="Path 6176" d="M379.508,422.825h1.8l.369-2.05h-2.538Z" transform="translate(4.797 125.093)" fill="none" stroke="#1a1818" stroke-miterlimit="2.613" stroke-width="0.5" fill-rule="evenodd"/>
    <path id="Path_6177" data-name="Path 6177" d="M335.809,428.353H347.88a.706.706,0,0,0,.7-.7v-1.591a5.855,5.855,0,0,0-1.609-4.034,5.076,5.076,0,0,0-3.674-1.249h-2.915a5.076,5.076,0,0,0-3.672,1.248,5.855,5.855,0,0,0-1.61,4.035v1.591A.706.706,0,0,0,335.809,428.353Z" transform="translate(43.361 125.092)" fill="none" stroke="#1a1818" stroke-miterlimit="2.613" stroke-width="0.75" fill-rule="evenodd"/>
    <path id="Path_6178" data-name="Path 6178" d="M449.9,362.379a3.119,3.119,0,0,1,3.07,3.165c0,1.748-1.375,3.826-3.07,3.826s-3.07-2.078-3.07-3.826A3.119,3.119,0,0,1,449.9,362.379Z" transform="translate(-54.48 176.234)" fill="none" stroke="#1a1818" stroke-miterlimit="2.613" stroke-width="0.75" fill-rule="evenodd"/>
    <path id="Path_6179" data-name="Path 6179" d="M446.827,379.2a4.317,4.317,0,0,0,3.8-1.228,3.578,3.578,0,0,0,2.338,1.228" transform="translate(-54.481 162.582)" fill="none" stroke="#1a1818" stroke-miterlimit="2.613" stroke-width="0.5" fill-rule="evenodd"/>
    <path id="Path_6180" data-name="Path 6180" d="M437.486,432.014h8.021a.537.537,0,0,0,.536-.536v-1.21a4.452,4.452,0,0,0-1.224-3.067,3.859,3.859,0,0,0-2.793-.95H439.81a3.86,3.86,0,0,0-2.792.949,3.466,3.466,0,0,0-.443.53" transform="translate(-45.502 120.297)" fill="none" stroke="#1a1818" stroke-miterlimit="2.613" stroke-width="0.75" fill-rule="evenodd"/>
    <path id="Path_6181" data-name="Path 6181" d="M285.79,362.379a3.119,3.119,0,0,1,3.07,3.165c0,1.748-1.375,3.826-3.07,3.826s-3.07-2.078-3.07-3.826A3.119,3.119,0,0,1,285.79,362.379Z" transform="translate(89.238 176.234)" fill="none" stroke="#1a1818" stroke-miterlimit="2.613" stroke-width="0.75" fill-rule="evenodd"/>
    <path id="Path_6182" data-name="Path 6182" d="M282.721,379.2a4.317,4.317,0,0,0,3.8-1.228,3.578,3.578,0,0,0,2.338,1.228" transform="translate(89.237 162.582)" fill="none" stroke="#1a1818" stroke-miterlimit="2.613" stroke-width="0.5" fill-rule="evenodd"/>
    <path id="Path_6183" data-name="Path 6183" d="M274.74,432.014h-8.021a.537.537,0,0,1-.536-.536v-1.21a4.451,4.451,0,0,1,1.223-3.067,3.86,3.86,0,0,1,2.793-.95h2.216a3.86,3.86,0,0,1,2.792.949,3.464,3.464,0,0,1,.443.53" transform="translate(103.72 120.297)" fill="none" stroke="#1a1818" stroke-miterlimit="2.613" stroke-width="0.75" fill-rule="evenodd"/>
    <circle id="Ellipse_233" data-name="Ellipse 233" cx="1.398" cy="1.398" r="1.398" transform="translate(371.247 528.58) rotate(-45)" fill="none" stroke="#1a1818" stroke-miterlimit="2.613" stroke-width="0.75"/>
    <ellipse id="Ellipse_234" data-name="Ellipse 234" cx="1.398" cy="1.398" rx="1.398" ry="1.398" transform="translate(377.504 532.264) rotate(-13.348)" fill="none" stroke="#1a1818" stroke-miterlimit="2.613" stroke-width="0.75"/>
    <circle id="Ellipse_235" data-name="Ellipse 235" cx="1.398" cy="1.398" r="1.398" transform="translate(383.236 526.22) rotate(-45)" fill="none" stroke="#1a1818" stroke-miterlimit="2.613" stroke-width="0.75"/>
    <ellipse id="Ellipse_236" data-name="Ellipse 236" cx="1.398" cy="1.398" rx="1.398" ry="1.398" transform="matrix(0.987, -0.161, 0.161, 0.987, 389.572, 529.786)" fill="none" stroke="#1a1818" stroke-miterlimit="2.613" stroke-width="0.75"/>
    <ellipse id="Ellipse_237" data-name="Ellipse 237" cx="1.398" cy="1.398" rx="1.398" ry="1.398" transform="matrix(0.974, -0.229, 0.229, 0.974, 395.521, 522.818)" fill="none" stroke="#1a1818" stroke-miterlimit="2.613" stroke-width="0.75"/>
    <line id="Line_577" data-name="Line 577" x2="3.684" y2="2.895" transform="translate(374.404 529.543)" fill="none" stroke="#1a1818" stroke-miterlimit="2.613" stroke-width="0.5"/>
    <line id="Line_578" data-name="Line 578" x1="4.228" y2="4.941" transform="translate(380.077 527.283)" fill="none" stroke="#1a1818" stroke-miterlimit="2.613" stroke-width="0.5"/>
    <line id="Line_579" data-name="Line 579" x2="3.684" y2="2.895" transform="translate(386.348 527.035)" fill="none" stroke="#1a1818" stroke-miterlimit="2.613" stroke-width="0.5"/>
    <line id="Line_580" data-name="Line 580" x1="4.228" y2="4.941" transform="translate(392.021 524.775)" fill="none" stroke="#1a1818" stroke-miterlimit="2.613" stroke-width="0.5"/>
  </g>
</svg>
