<svg xmlns="http://www.w3.org/2000/svg" width="31.144" height="31.278" viewBox="0 0 31.144 31.278"><g transform="translate(-313.428 -258.161)"><g transform="translate(-193.372 12.561)"><g transform="translate(506.8 245.6)" style="isolation:isolate"><path d="M528.776,270.677l-.539-4.179a26.652,26.652,0,0,0,4.854-4.045c4.719-5.258,4.854-15.235,4.854-16.313V246h0c0-.27-.27-.4-.539-.4h0c-1.078,0-10.92.135-16.313,4.854a26.649,26.649,0,0,0-4.045,4.854L513,254.768a.5.5,0,0,0-.4.135l-5.662,5.662c-.135.135-.135.27-.135.539,0,.135.135.135.135.27a.471.471,0,0,0,.27.135l4.854,1.348c.27.135.539-.135.674-.4s-.135-.539-.4-.674l-3.91-1.079,4.988-4.988,3.371.4h0a35.607,35.607,0,0,0-2.831,6.606.81.81,0,0,0,.135.539l3.1,3.1,3.1,3.1c.135.135.27.135.539.135a26.928,26.928,0,0,0,6.741-2.831h0l.4,3.505-4.988,4.988-1.078-3.91a.556.556,0,0,0-1.079.27l1.348,4.854c0,.135.135.135.135.27a.47.47,0,0,0,.27.135.811.811,0,0,0,.539-.135l5.662-5.662Zm-11.46-5.123-2.562-2.562a34.515,34.515,0,0,1,2.966-6.876h0a19.943,19.943,0,0,1,4.045-4.988c4.179-3.64,11.46-4.449,14.426-4.584l-5.123,5.123a6.361,6.361,0,0,0-4.449-1.483,7.577,7.577,0,0,0-7.146,7.146,5.972,5.972,0,0,0,1.483,4.449Zm3.236-7.954a6.669,6.669,0,0,1,6.2-6.2,5.646,5.646,0,0,1,3.64,1.213c.135.135.27.27.4.27.135.135.27.27.27.4a5.647,5.647,0,0,1,1.213,3.64,7.391,7.391,0,0,1-1.888,4.314,6.363,6.363,0,0,1-4.314,1.887,5.123,5.123,0,0,1-5.528-5.528Zm0,11.19-2.562-2.562,3.64-3.64a6.361,6.361,0,0,0,4.449,1.483,7.577,7.577,0,0,0,7.145-7.146,5.972,5.972,0,0,0-1.483-4.449l5.123-5.123c-.135,2.966-.809,10.381-4.584,14.426A23.875,23.875,0,0,1,520.552,268.789Z" transform="translate(-506.8 -245.6)" fill="#FFFFFF"/><path d="M513.323,260.426a.612.612,0,0,0-.674,0l-5.123,5.123a.477.477,0,0,0,.674.674l5.123-5.123C513.593,260.831,513.593,260.561,513.323,260.426Z" transform="translate(-506.582 -240.473)" fill="#FFFFFF"/><path d="M516.923,264.026a.612.612,0,0,0-.674,0l-5.123,5.123a.477.477,0,0,0,.674.674l5.123-5.123C517.193,264.431,517.193,264.161,516.923,264.026Z" transform="translate(-505.329 -239.219)" fill="#FFFFFF"/><path d="M514.254,263.026a.612.612,0,0,0-.674,0l-4.853,4.854a.477.477,0,1,0,.674.674l4.854-4.854A.382.382,0,0,0,514.254,263.026Z" transform="translate(-506.164 -239.567)" fill="#FFFFFF"/><path d="M526.91,254.962h0a.506.506,0,0,0-.809,0s-1.753,1.887-3.236,3.236a1.638,1.638,0,0,1-2.157.135l-1.213-1.213c-.809-.944.135-1.887.27-2.022L523,251.861a.572.572,0,0,0-.809-.809l-3.236,3.236c-.674.674-1.618,2.292-.4,3.64.27.27.4.539.674.809s.539.4.809.674a2.7,2.7,0,0,0,3.64-.27c1.483-1.348,3.236-3.236,3.236-3.236C527.18,255.5,527.18,255.232,526.91,254.962Z" transform="translate(-502.912 -243.772)" fill="#FFFFFF"/><path d="M520,256.192a1.335,1.335,0,1,0,0-1.887A1.3,1.3,0,0,0,520,256.192Zm1.078-1.618a.286.286,0,1,1-.4,0A.253.253,0,0,1,521.083,254.574Z" transform="translate(-502.343 -242.71)" fill="#FFFFFF"/></g></g></g></svg>