<svg width="85" height="78" viewBox="0 0 85 78" fill="none" xmlns="http://www.w3.org/2000/svg">
<path d="M42.1597 0.147847C48.6841 -0.583392 55.4774 1.4213 60.5094 5.64126C65.0549 9.33228 68.1444 14.7196 69.1273 20.4799C74.9693 22.0353 79.9647 26.2519 82.6476 31.6409C84.1002 34.4846 84.8622 37.6516 85 40.8353V41.787C84.8938 45.3918 83.9558 48.9867 82.1479 52.1156C79.2177 57.3122 74.0778 61.2851 68.2108 62.5336C66.8545 62.8305 65.4649 63.0178 64.0737 62.9813C60.0943 62.9697 56.1149 62.9946 52.1372 62.9714C50.8738 63.0012 49.7482 61.8754 49.7848 60.6168C49.7565 59.36 50.8788 58.2374 52.1389 58.2722C56.3424 58.2507 60.5476 58.2756 64.7511 58.2606C70.2495 57.987 75.3213 54.5431 78.0024 49.8058C79.6676 46.9239 80.4678 43.5496 80.2271 40.2284C79.9481 35.9321 77.9726 31.7735 74.8183 28.8403C72.7165 26.8654 70.0852 25.4328 67.2529 24.8491C66.5407 24.7016 65.7654 24.5275 65.2757 23.9454C64.7411 23.3701 64.6614 22.5559 64.5585 21.8164C63.9359 16.9464 61.3876 12.3567 57.5925 9.23776C54.3021 6.49188 50.0902 4.88349 45.8104 4.70939C41.2416 4.46398 36.6197 5.90325 32.9657 8.64249C30.4107 10.5295 28.3372 13.0498 26.951 15.9035C26.6189 16.6646 25.9051 17.2466 25.0767 17.3676C24.0457 17.5235 23.1011 16.9166 22.0834 16.8486C19.7011 16.4838 17.2075 17.2316 15.373 18.7787C13.1352 20.5993 11.8568 23.5773 12.2387 26.4559C12.2785 27.6713 13.082 28.8336 12.6902 30.0573C12.4329 30.9295 11.5962 31.4004 10.8923 31.878C7.76289 33.949 5.5748 37.3565 4.94229 41.0475C3.83828 47.2174 7.15693 53.8218 12.6687 56.7633C14.4334 57.7101 16.4239 58.2673 18.4327 58.2822C23.1891 58.2789 27.9454 58.2772 32.7018 58.2822C33.4837 58.2606 34.2839 58.5956 34.7421 59.2439C35.3879 60.1012 35.3331 61.4011 34.6093 62.197C34.1411 62.7509 33.4106 63.0112 32.6984 62.9946C28.055 62.9996 23.4115 62.9913 18.7697 62.9979C15.0775 63.0576 11.4036 61.8289 8.42197 59.67C3.38506 56.0918 0.175977 50.1092 0 43.9343V43.2744C0.0780273 39.2418 1.42773 35.2208 3.93457 32.0438C4.99541 30.6145 6.32686 29.414 7.72471 28.3229C7.22666 25.6998 7.41758 22.9274 8.45352 20.4551C9.76504 17.2234 12.3864 14.5554 15.5938 13.1808C18.0608 12.103 20.8516 11.8245 23.4929 12.3236C24.8243 10.0751 26.4629 8.00245 28.4235 6.26969C32.217 2.86885 37.0879 0.683426 42.1597 0.147847Z" fill="#57CC99"/>
<path d="M40.9088 29.6533C41.8006 28.7022 43.4125 28.8226 44.2395 29.8C48.1053 33.7295 51.9695 37.6607 55.8369 41.5869C56.3201 42.0616 56.8358 42.5825 56.9509 43.288C57.1828 44.3412 56.5699 45.4901 55.5921 45.8955C54.7553 46.2747 53.7127 46.062 53.0786 45.3928C50.3139 42.5973 47.5653 39.7837 44.8038 36.9849C44.8038 49.6372 44.7989 62.2894 44.8054 74.9417C44.8249 75.69 44.8038 76.5125 44.3027 77.1142C43.5746 78.1081 42.0358 78.2976 41.092 77.5196C40.4547 77.0416 40.1483 76.2257 40.1904 75.4378C40.192 62.6191 40.1904 49.802 40.1904 36.9849C37.4273 39.7837 34.6787 42.599 31.9123 45.3961C31.0788 46.301 29.5448 46.3093 28.6967 45.4225C27.7773 44.5687 27.7676 42.9616 28.6692 42.0913C32.7425 37.9392 36.8208 33.7905 40.9088 29.6533Z" fill="#57CC99"/>
</svg>
