<svg xmlns="http://www.w3.org/2000/svg" width="30.863" height="21.8" viewBox="0 0 30.863 21.8">
  <g id="page_work" data-name="page work" transform="translate(-315.793 -1531.214)">
    <path id="Path_6644" data-name="Path 6644" d="M102.446,270.923a210.739,210.739,0,0,0,23.534,0c.408,0,.613.355.742.742l2.519,7.569a1.289,1.289,0,0,1-.056.812c-.286,1.029-1.8,1.459-2.884,1.356a4.606,4.606,0,0,1-3.008-2.077,3,3,0,0,1-2.781,2.1,4.059,4.059,0,0,1-3.272-2.134,3.3,3.3,0,0,1-2.978,2.148,3.481,3.481,0,0,1-3.076-2.115c-1.178,1.717-1.963,2.125-3.665,2.129s-2.487-2.2-2.487-2.2a3.544,3.544,0,0,1-3.728,2.208l-.24.033c-1.136-.117-2.171-1.059-1.823-2.148l2.46-7.688C101.828,271.276,102.038,270.923,102.446,270.923Z" transform="translate(217 1260.666)" fill="none" stroke="#121212" stroke-miterlimit="2.613" stroke-width="0.75" fill-rule="evenodd"/>
    <line id="Line_719" data-name="Line 719" x1="1.864" y2="8.336" transform="translate(322.035 1531.589)" fill="none" stroke="#121212" stroke-miterlimit="2.613" stroke-width="0.75"/>
    <line id="Line_720" data-name="Line 720" x1="0.908" y2="8.188" transform="translate(328.187 1531.803)" fill="none" stroke="#121212" stroke-miterlimit="2.613" stroke-width="0.75"/>
    <line id="Line_721" data-name="Line 721" x2="1.872" y2="8.402" transform="translate(338.421 1531.589)" fill="none" stroke="#121212" stroke-miterlimit="2.613" stroke-width="0.75"/>
    <line id="Line_722" data-name="Line 722" x2="1.146" y2="8.155" transform="translate(333.094 1531.803)" fill="none" stroke="#121212" stroke-miterlimit="2.613" stroke-width="0.75"/>
    <path id="Path_6648" data-name="Path 6648" d="M104.476,294.528v10.505H129.8V294.476" transform="translate(214.061 1247.606)" fill="none" stroke="#121212" stroke-miterlimit="2.613" stroke-width="0.75" fill-rule="evenodd"/>
    <path id="Path_6649" data-name="Path 6649" d="M125.738,306.568h4.478a.607.607,0,0,1,.6.609v7.276h-5.682v-7.276A.607.607,0,0,1,125.738,306.568Z" transform="translate(203.265 1238.186)" fill="none" stroke="#121212" stroke-miterlimit="2.613" stroke-width="0.75" fill-rule="evenodd"/>
  </g>
</svg>
